<svg width="20" height="20" viewBox="0 0 20 20" fill="none" xmlns="http://www.w3.org/2000/svg">
<path d="M19.2857 11.4286H16.4286V8.57143C16.4286 8.38199 16.3533 8.20031 16.2194 8.06635C16.0854 7.9324 15.9037 7.85714 15.7143 7.85714H10.7143V5.71429H13.5714C13.7609 5.71429 13.9426 5.63903 14.0765 5.50508C14.2105 5.37112 14.2857 5.18944 14.2857 5V0.714286C14.2857 0.524845 14.2105 0.343164 14.0765 0.209209C13.9426 0.0752549 13.7609 0 13.5714 0H6.42857C6.23913 0 6.05745 0.0752549 5.9235 0.209209C5.78954 0.343164 5.71429 0.524845 5.71429 0.714286V5C5.71429 5.18944 5.78954 5.37112 5.9235 5.50508C6.05745 5.63903 6.23913 5.71429 6.42857 5.71429H9.28571V7.85714H4.28571C4.09627 7.85714 3.91459 7.9324 3.78064 8.06635C3.64668 8.20031 3.57143 8.38199 3.57143 8.57143V11.4286H0.714286C0.524845 11.4286 0.343164 11.5038 0.209209 11.6378C0.0752549 11.7717 0 11.9534 0 12.1429V16.4286C0 16.618 0.0752549 16.7997 0.209209 16.9336C0.343164 17.0676 0.524845 17.1429 0.714286 17.1429H3.57143V19.2857C3.57143 19.4752 3.64668 19.6568 3.78064 19.7908C3.91459 19.9247 4.09627 20 4.28571 20C4.47515 20 4.65684 19.9247 4.79079 19.7908C4.92475 19.6568 5 19.4752 5 19.2857V17.1429H7.85714C8.04658 17.1429 8.22826 17.0676 8.36222 16.9336C8.49617 16.7997 8.57143 16.618 8.57143 16.4286V12.1429C8.57143 11.9534 8.49617 11.7717 8.36222 11.6378C8.22826 11.5038 8.04658 11.4286 7.85714 11.4286H5V9.28571H15V11.4286H12.1429C11.9534 11.4286 11.7717 11.5038 11.6378 11.6378C11.5038 11.7717 11.4286 11.9534 11.4286 12.1429V16.4286C11.4286 16.618 11.5038 16.7997 11.6378 16.9336C11.7717 17.0676 11.9534 17.1429 12.1429 17.1429H15V19.2857C15 19.4752 15.0753 19.6568 15.2092 19.7908C15.3432 19.9247 15.5248 20 15.7143 20C15.9037 20 16.0854 19.9247 16.2194 19.7908C16.3533 19.6568 16.4286 19.4752 16.4286 19.2857V17.1429H19.2857C19.4752 17.1429 19.6568 17.0676 19.7908 16.9336C19.9247 16.7997 20 16.618 20 16.4286V12.1429C20 11.9534 19.9247 11.7717 19.7908 11.6378C19.6568 11.5038 19.4752 11.4286 19.2857 11.4286Z" fill="url(#paint0_linear_1025_11179)"/>
<defs>
<linearGradient id="paint0_linear_1025_11179" x1="10" y1="0" x2="10" y2="20" gradientUnits="userSpaceOnUse">
<stop stop-color="#46B753"/>
<stop offset="1" stop-color="#E0DC32"/>
</linearGradient>
</defs>
</svg>
