<svg width="42" height="42" viewBox="0 0 42 42" fill="none" xmlns="http://www.w3.org/2000/svg">
<circle cx="21" cy="21" r="21" fill="url(#paint0_linear_1467_1579)"/>
<path d="M30.3438 22C30.896 22 31.3438 21.5523 31.3438 21C31.3438 20.4477 30.896 20 30.3438 20V21V22ZM10.6366 20.2929C10.2461 20.6834 10.2461 21.3166 10.6366 21.7071L17.0006 28.0711C17.3911 28.4616 18.0243 28.4616 18.4148 28.0711C18.8053 27.6805 18.8053 27.0474 18.4148 26.6569L12.758 21L18.4148 15.3431C18.8053 14.9526 18.8053 14.3195 18.4148 13.9289C18.0243 13.5384 17.3911 13.5384 17.0006 13.9289L10.6366 20.2929ZM30.3438 21V20L11.3438 20V21V22L30.3438 22V21Z" fill="black"/>
<defs>
<linearGradient id="paint0_linear_1467_1579" x1="21" y1="0" x2="21" y2="42" gradientUnits="userSpaceOnUse">
<stop stop-color="#46B753"/>
<stop offset="1" stop-color="#E0DC32"/>
</linearGradient>
</defs>
</svg>
