<svg width="75" height="66" viewBox="0 0 75 66" fill="none" xmlns="http://www.w3.org/2000/svg">
<path d="M72.8027 60.9785H71.9238V39.7383C71.9238 38.906 71.4536 38.1451 70.7092 37.773L65.332 35.0845V60.9785H60.9375V28.0195C60.9375 27.2848 60.5704 26.5988 59.959 26.1914L46.7754 17.4023C46.1013 16.9528 45.2342 16.9109 44.5198 17.2932C43.8054 17.6755 43.3594 18.4201 43.3594 19.2305V60.9785H38.9648V19.2305C38.9648 16.7949 40.2989 14.5679 42.4463 13.4186C43.3997 12.9083 44.4751 12.6387 45.5565 12.6387C46.8627 12.6387 48.1274 13.0216 49.2139 13.7464L51.416 15.2145V2.82422C51.416 1.61074 50.4322 0.626953 49.2188 0.626953H25.7812C24.5678 0.626953 23.584 1.61074 23.584 2.82422V5.31445H27.2461C30.8808 5.31445 33.8379 8.27153 33.8379 11.9062V60.9785H29.4434V11.9062C29.4434 10.6928 28.4596 9.70898 27.2461 9.70898H14.0625C12.849 9.70898 11.8652 10.6928 11.8652 11.9062V41.2031H16.9922C20.6269 41.2031 23.584 44.1602 23.584 47.7949V60.9785H19.1895V47.7949C19.1895 46.5814 18.2057 45.5977 16.9922 45.5977H5.27344C4.05996 45.5977 3.07617 46.5814 3.07617 47.7949V60.9785H2.19727C0.983789 60.9785 0 61.9623 0 63.1758C0 64.3893 0.983789 65.373 2.19727 65.373H72.8027C74.0162 65.373 75 64.3893 75 63.1758C75 61.9623 74.0162 60.9785 72.8027 60.9785ZM49.9512 35.3438C49.9512 34.1303 50.935 33.1465 52.1484 33.1465C53.3619 33.1465 54.3457 34.1303 54.3457 35.3438V39.7383C54.3457 40.9518 53.3619 41.9355 52.1484 41.9355C50.935 41.9355 49.9512 40.9518 49.9512 39.7383V35.3438ZM49.9512 48.5273C49.9512 47.3139 50.935 46.3301 52.1484 46.3301C53.3619 46.3301 54.3457 47.3139 54.3457 48.5273V52.9219C54.3457 54.1354 53.3619 55.1191 52.1484 55.1191C50.935 55.1191 49.9512 54.1354 49.9512 52.9219V48.5273ZM22.8516 35.3438C22.8516 36.5572 21.8678 37.541 20.6543 37.541C19.4408 37.541 18.457 36.5572 18.457 35.3438V30.9492C18.457 29.7357 19.4408 28.752 20.6543 28.752C21.8678 28.752 22.8516 29.7357 22.8516 30.9492V35.3438ZM22.8516 22.1602C22.8516 23.3736 21.8678 24.3574 20.6543 24.3574C19.4408 24.3574 18.457 23.3736 18.457 22.1602V17.7656C18.457 16.5521 19.4408 15.5684 20.6543 15.5684C21.8678 15.5684 22.8516 16.5521 22.8516 17.7656V22.1602ZM8.93555 55.8516C8.93555 54.6381 9.91934 53.6543 11.1328 53.6543C12.3463 53.6543 13.3301 54.6381 13.3301 55.8516V60.9785H8.93555V55.8516Z" fill="white"/>
</svg>
