<svg width="20" height="15" viewBox="0 0 20 15" fill="none" xmlns="http://www.w3.org/2000/svg">
<path d="M12.9627 7.86133L11.2873 9.54203C10.6079 10.2237 9.41252 10.2384 8.71843 9.54203L7.04295 7.86133L1.02539 13.8971C1.24938 14.0007 1.49635 14.0625 1.75891 14.0625H18.2469C18.5094 14.0625 18.7563 14.0007 18.9802 13.8972L12.9627 7.86133Z" fill="#46B753"/>
<path d="M18.2468 0H1.75883C1.49627 0 1.24931 0.061797 1.02539 0.165352L7.45557 6.61547C7.456 6.6159 7.45651 6.61598 7.45694 6.61641C7.45737 6.61684 7.45745 6.61743 7.45745 6.61743L9.54825 8.71469C9.77033 8.93673 10.2354 8.93673 10.4574 8.71469L12.5478 6.61778C12.5478 6.61778 12.5483 6.61684 12.5487 6.61641C12.5487 6.61641 12.5497 6.6159 12.5501 6.61547L18.9801 0.165313C18.7562 0.0617189 18.5093 0 18.2468 0Z" fill="#46B753"/>
<path d="M0.186994 0.984863C0.0711092 1.21916 0 1.47924 0 1.75783V12.3047C0 12.5833 0.071031 12.8434 0.186955 13.0777L6.21494 7.03147L0.186994 0.984863Z" fill="#46B753"/>
<path d="M19.8121 0.984863L13.7842 7.03155L19.8121 13.0778C19.928 12.8435 19.9991 12.5835 19.9991 12.3048V1.75791C19.9991 1.47924 19.928 1.21916 19.8121 0.984863Z" fill="#46B753"/>
</svg>
