<svg width="92" height="59" viewBox="0 0 92 59" fill="none" xmlns="http://www.w3.org/2000/svg">
<path d="M15.499 11.4013L30.7199 26.6221C34.1748 23.8583 38.371 22.062 42.9926 21.542V0C32.4674 0.616705 22.9109 4.80787 15.499 11.4013Z" fill="#46B753"/>
<path d="M11.7153 15.1851C4.56401 23.2238 0 33.774 0 45.3545C0 46.8336 1.19684 48.0304 2.6759 48.0304H18.9097C20.3887 48.0304 21.5856 46.8336 21.5856 45.3545C21.5856 39.6793 23.6401 34.5263 26.9361 30.4059L11.7153 15.1851Z" fill="#46B753"/>
<path d="M66.3441 24.4309C65.4425 23.6444 64.1359 23.5425 63.1403 24.1879L39.9171 39.0019C36.8152 40.9826 34.9651 44.3561 34.9651 48.0303C34.9651 53.9335 39.7655 58.7339 45.6687 58.7339C49.8185 58.7339 53.6284 56.3037 55.374 52.5433L67.0052 27.5719C67.507 26.4953 67.2378 25.2147 66.3441 24.4309Z" fill="#46B753"/>
<path d="M79.6222 15.1851L71.7572 23.0501C72.7477 25.1642 72.8779 27.639 71.8555 29.8322L68.3369 37.3863C69.2428 39.8747 69.7519 42.5493 69.7519 45.3545C69.7519 46.8336 70.9488 48.0304 72.4278 48.0304H88.6616C90.1407 48.0304 91.3375 46.8336 91.3375 45.3545C91.3375 33.774 86.7735 23.2238 79.6222 15.1851Z" fill="#46B753"/>
<path d="M48.3445 0V21.542C50.5974 21.7955 52.744 22.3626 54.7582 23.1866L60.2633 19.6748C62.4688 18.2455 65.1639 17.9389 67.9708 19.2686L75.8381 11.4013C68.4262 4.80787 58.8697 0.616705 48.3445 0Z" fill="#46B753"/>
</svg>
