<svg width="56" height="76" viewBox="0 0 56 76" fill="none" xmlns="http://www.w3.org/2000/svg">
<path d="M13.502 9.34066H24.385C25.9435 5.84773 28.6841 3.02328 28.7071 2.97733C29.1442 2.5693 29.2608 1.95725 29.0277 1.4035C28.7946 0.849741 28.27 0.5 27.6871 0.5C25.064 0.5 23.6359 1.43264 22.4993 2.19041C21.4792 2.88989 20.6923 3.4145 18.9436 3.4145C17.1949 3.4145 16.4079 2.88989 15.3879 2.19041C14.2512 1.43264 12.8231 0.5 10.2001 0.5C9.61715 0.5 9.09254 0.849741 8.85938 1.4035C8.62622 1.95725 8.7428 2.5693 9.17998 2.97733C9.203 3.02328 11.9435 5.84773 13.502 9.34066Z" fill="white"/>
<path d="M29.2422 45.8691V48.7836C29.2422 49.5884 29.8946 50.2409 30.6994 50.2409H48.2836C49.0884 50.2409 49.7409 49.5884 49.7409 48.7836V45.8691C49.7409 45.0643 49.0884 44.4119 48.2836 44.4119H30.6994C29.8946 44.4119 29.2422 45.0643 29.2422 45.8691Z" fill="white"/>
<path d="M49.7409 40.0402V37.1257C49.7409 36.3209 49.0884 35.6685 48.2836 35.6685H30.6994C29.8946 35.6685 29.2422 36.3209 29.2422 37.1257V40.0402C29.2422 40.845 29.8946 41.4975 30.6994 41.4975H48.2836C49.0884 41.4975 49.7409 40.845 49.7409 40.0402Z" fill="white"/>
<path d="M29.0576 24.0686C26.2014 21.2707 23.8698 18.9002 23.4035 15.1696H24.7733C25.5893 15.1696 26.2305 14.5284 26.2305 13.7124C26.2305 12.8963 25.5893 12.2551 24.7733 12.2551H13.1153C12.2992 12.2551 11.658 12.8963 11.658 13.7124C11.658 14.5284 12.2992 15.1696 13.1153 15.1696H14.4851C14.0188 18.9002 11.6872 21.2707 8.83095 24.0686C4.69235 28.1197 0 32.7247 0 43.246C0.0582901 47.0932 3.35168 50.2408 7.28626 50.2408H26.4987C26.3355 49.7833 26.2305 49.2965 26.2305 48.7836V37.1256C26.2305 34.7153 28.192 32.7538 30.6023 32.7538H35.8222C34.0589 28.9747 31.4436 26.4099 29.0576 24.0686ZM18.9443 32.7538C21.355 32.7538 23.316 34.7149 23.316 37.1256C23.316 39.0229 22.0941 40.6253 20.4015 41.2289V42.9546C20.4015 43.76 19.7497 44.4118 18.9443 44.4118C18.1388 44.4118 17.487 43.76 17.487 42.9546V41.2289C15.7945 40.6254 14.5725 39.0229 14.5725 37.1256C14.5725 36.3201 15.2243 35.6683 16.0298 35.6683C16.8352 35.6683 17.487 36.3201 17.487 37.1256C17.487 37.9296 18.1403 38.5828 18.9443 38.5828C19.7483 38.5828 20.4015 37.9296 20.4015 37.1256C20.4015 36.3215 19.7483 35.6683 18.9443 35.6683C16.5336 35.6683 14.5725 33.7072 14.5725 31.2966C14.5725 29.3992 15.7945 27.7968 17.487 27.1932V25.4675C17.487 24.6621 18.1388 24.0103 18.9443 24.0103C19.7497 24.0103 20.4015 24.6621 20.4015 25.4675V27.1932C22.0941 27.7967 23.316 29.3992 23.316 31.2966C23.316 32.102 22.6642 32.7538 21.8588 32.7538C21.0533 32.7538 20.4015 32.102 20.4015 31.2966C20.4015 30.4925 19.7483 29.8393 18.9443 29.8393C18.1403 29.8393 17.487 30.4925 17.487 31.2966C17.487 32.1006 18.1403 32.7538 18.9443 32.7538Z" fill="white"/>
<path d="M5.4403 58.7903H1.65856C0.742592 58.7903 0 59.5507 0 60.4886V73.8018C0 74.7397 0.742592 75.5001 1.65856 75.5001H5.44041L5.4403 58.7903Z" fill="white"/>
<path d="M54.6945 58.7195C51.5828 55.5459 46.5193 55.5458 43.4077 58.7195L38.4342 63.7915L36.3958 65.8704C35.572 66.7106 34.4545 67.1827 33.2895 67.1827H23.3773C22.4821 67.1827 21.7117 66.481 21.6696 65.569C21.6246 64.5953 22.3854 63.7915 23.3303 63.7915H33.4053C35.4311 63.7915 37.1881 62.3207 37.5363 60.2856C37.6163 59.8183 37.658 59.3378 37.658 58.8474C37.6581 57.9106 36.9139 57.1505 35.9955 57.1505H30.4749C28.6707 57.1505 26.9382 56.3159 25.1039 55.432C23.1799 54.5052 21.1904 53.5467 18.8642 53.3889C16.8296 53.2506 14.7904 53.4778 12.8028 54.0631C10.6747 54.6898 9.14497 56.618 8.95946 58.8442C8.95238 58.8437 8.94518 58.8436 8.93799 58.8431V75.4918L37.5416 75.4998C39.5082 75.4998 41.3573 74.7187 42.7481 73.3004L54.6942 61.1173C55.3438 60.4554 55.3438 59.3817 54.6945 58.7195Z" fill="white"/>
</svg>
