<svg width="50" height="50" viewBox="0 0 50 50" fill="none" xmlns="http://www.w3.org/2000/svg">
<g clip-path="url(#clip0_983_7531)">
<path d="M7.48174 11.7928C7.11993 11.0692 6.23995 10.7757 5.51641 11.1377L2.37842 12.7067C1.65479 13.0685 1.36153 13.9484 1.72334 14.672C2.08633 15.398 2.96748 15.6877 3.68868 15.3271L6.82666 13.7581C7.5502 13.3962 7.84346 12.5163 7.48174 11.7928Z" fill="url(#paint0_linear_983_7531)"/>
<path d="M2.37836 2.77538L5.51635 4.34442C6.23891 4.70565 7.11928 4.41415 7.48168 3.68934C7.8435 2.96571 7.55024 2.08583 6.8266 1.72401L3.68862 0.154968C2.96498 -0.206849 2.0852 0.0865106 1.72328 0.810046C1.36157 1.53368 1.65483 2.41356 2.37836 2.77538Z" fill="url(#paint1_linear_983_7531)"/>
<path d="M43.1733 13.7582L46.3114 15.3271C47.0341 15.6884 47.9144 15.3967 48.2767 14.672C48.6385 13.9484 48.3452 13.0685 47.6216 12.7067L44.4835 11.1378C43.7603 10.7762 42.8802 11.0692 42.5183 11.7928C42.1564 12.5165 42.4497 13.3965 43.1733 13.7582Z" fill="url(#paint2_linear_983_7531)"/>
<path d="M44.4835 4.34444L47.6216 2.77539C48.3452 2.41358 48.6385 1.5337 48.2767 0.810063C47.9149 0.0864305 47.0351 -0.206831 46.3114 0.154985L43.1733 1.72403C42.4497 2.08584 42.1564 2.96573 42.5183 3.68936C42.8814 4.41573 43.7627 4.70479 44.4835 4.34444Z" fill="url(#paint3_linear_983_7531)"/>
<path d="M10.1665 31.1014C13.1031 30.6253 15.0978 27.8587 14.6218 24.922C14.1457 21.9853 11.3792 19.9906 8.44251 20.4666C5.50587 20.9427 3.51117 23.7093 3.98723 26.646C4.46329 29.5827 7.22984 31.5774 10.1665 31.1014Z" fill="url(#paint4_linear_983_7531)"/>
<path d="M41.5432 31.107C44.4798 30.6309 46.4745 27.8644 45.9985 24.9277C45.5224 21.991 42.7559 19.9962 39.8192 20.4723C36.8826 20.9483 34.8879 23.7149 35.3639 26.6516C35.84 29.5883 38.6065 31.583 41.5432 31.107Z" fill="url(#paint5_linear_983_7531)"/>
<path d="M17.4954 34.2516L17.5698 34.2218C17.3929 33.8708 17.2399 33.5058 17.1133 33.1288C16.7146 32.7684 16.2483 32.4733 15.7268 32.2646L14.9005 31.9341C13.4229 33.2795 11.4612 34.1015 9.30996 34.1015C7.15849 34.1015 5.19531 33.2803 3.71719 31.935L2.89316 32.2646C1.13564 32.9676 0 34.6451 0 36.5385V48.5352C0 49.3441 0.655859 50 1.46484 50H13.0124C12.8498 49.5415 12.7604 49.0486 12.7604 48.5352V41.2455C12.7604 38.1472 14.619 35.4019 17.4954 34.2516Z" fill="url(#paint6_linear_983_7531)"/>
<path d="M47.1063 32.2646L46.2823 31.935C44.8042 33.2803 42.8409 34.1015 40.6895 34.1015C38.5383 34.1015 36.5766 33.2795 35.0991 31.9341L34.2729 32.2646C33.7512 32.4732 33.2849 32.7683 32.8862 33.1288C32.7596 33.5058 32.6065 33.8707 32.4297 34.2217L32.5045 34.2516C35.3806 35.4017 37.2392 38.147 37.2392 41.2454V48.5351C37.2392 49.0485 37.1498 49.5414 36.9872 49.9999H48.5347C49.3436 49.9999 49.9995 49.344 49.9995 48.5351V36.5384C49.9995 34.645 48.8639 32.9675 47.1063 32.2646Z" fill="url(#paint7_linear_983_7531)"/>
<path d="M31.4162 36.9718L30.5922 36.6421C29.1141 37.9874 27.1509 38.8086 24.9994 38.8086C22.8479 38.8086 20.8848 37.9874 19.4066 36.6421L18.5826 36.9718C16.8251 37.6746 15.6895 39.3521 15.6895 41.2456V48.5352C15.6895 49.3441 16.3453 50 17.1543 50H32.8444C33.6534 50 34.3093 49.3441 34.3093 48.5352V41.2455C34.3093 39.3521 33.1737 37.6746 31.4162 36.9718Z" fill="url(#paint8_linear_983_7531)"/>
<path d="M25.8537 35.8108C28.7904 35.3348 30.7851 32.5682 30.309 29.6315C29.833 26.6948 27.0664 24.7001 24.1298 25.1761C21.1931 25.6522 19.1984 28.4188 19.6745 31.3555C20.1505 34.2922 22.9171 36.2869 25.8537 35.8108Z" fill="url(#paint9_linear_983_7531)"/>
<path d="M23.9641 21.3258C24.2389 21.6005 24.6115 21.7549 25 21.7549C25.3886 21.7549 25.7611 21.6005 26.0358 21.3258L36.4681 10.8928C38.9565 8.40421 38.9565 4.35509 36.4681 1.86652C33.9795 -0.622058 29.9305 -0.622058 27.4421 1.86622L25 4.30763L22.558 1.86642C20.0695 -0.622156 16.0203 -0.622058 13.532 1.86622C11.0345 4.3628 11.0387 8.4005 13.5318 10.8928L23.9641 21.3258Z" fill="url(#paint10_linear_983_7531)"/>
</g>
<defs>
<linearGradient id="paint0_linear_983_7531" x1="4.60251" y1="10.9827" x2="4.60251" y2="15.482" gradientUnits="userSpaceOnUse">
<stop stop-color="#46B753"/>
<stop offset="1" stop-color="#E0DC32"/>
</linearGradient>
<linearGradient id="paint1_linear_983_7531" x1="4.60251" y1="0" x2="4.60251" y2="4.49936" gradientUnits="userSpaceOnUse">
<stop stop-color="#46B753"/>
<stop offset="1" stop-color="#E0DC32"/>
</linearGradient>
<linearGradient id="paint2_linear_983_7531" x1="45.3975" y1="10.9829" x2="45.3975" y2="15.4821" gradientUnits="userSpaceOnUse">
<stop stop-color="#46B753"/>
<stop offset="1" stop-color="#E0DC32"/>
</linearGradient>
<linearGradient id="paint3_linear_983_7531" x1="45.3975" y1="0" x2="45.3975" y2="4.49927" gradientUnits="userSpaceOnUse">
<stop stop-color="#46B753"/>
<stop offset="1" stop-color="#E0DC32"/>
</linearGradient>
<linearGradient id="paint4_linear_983_7531" x1="8.44251" y1="20.4666" x2="10.1665" y2="31.1014" gradientUnits="userSpaceOnUse">
<stop stop-color="#46B753"/>
<stop offset="1" stop-color="#E0DC32"/>
</linearGradient>
<linearGradient id="paint5_linear_983_7531" x1="39.8192" y1="20.4723" x2="41.5432" y2="31.107" gradientUnits="userSpaceOnUse">
<stop stop-color="#46B753"/>
<stop offset="1" stop-color="#E0DC32"/>
</linearGradient>
<linearGradient id="paint6_linear_983_7531" x1="8.78491" y1="31.9341" x2="8.78491" y2="50" gradientUnits="userSpaceOnUse">
<stop stop-color="#46B753"/>
<stop offset="1" stop-color="#E0DC32"/>
</linearGradient>
<linearGradient id="paint7_linear_983_7531" x1="41.2146" y1="31.9341" x2="41.2146" y2="49.9999" gradientUnits="userSpaceOnUse">
<stop stop-color="#46B753"/>
<stop offset="1" stop-color="#E0DC32"/>
</linearGradient>
<linearGradient id="paint8_linear_983_7531" x1="24.9994" y1="36.6421" x2="24.9994" y2="50" gradientUnits="userSpaceOnUse">
<stop stop-color="#46B753"/>
<stop offset="1" stop-color="#E0DC32"/>
</linearGradient>
<linearGradient id="paint9_linear_983_7531" x1="24.1298" y1="25.1761" x2="25.8537" y2="35.8108" gradientUnits="userSpaceOnUse">
<stop stop-color="#46B753"/>
<stop offset="1" stop-color="#E0DC32"/>
</linearGradient>
<linearGradient id="paint10_linear_983_7531" x1="24.9974" y1="0" x2="24.9974" y2="21.7549" gradientUnits="userSpaceOnUse">
<stop stop-color="#46B753"/>
<stop offset="1" stop-color="#E0DC32"/>
</linearGradient>
<clipPath id="clip0_983_7531">
<rect width="50" height="50" fill="white"/>
</clipPath>
</defs>
</svg>
