<svg width="76" height="75" viewBox="0 0 76 75" fill="none" xmlns="http://www.w3.org/2000/svg">
<path d="M53.7546 72.8027C53.7546 74.0172 52.7719 75 51.5574 75H25.1902C23.9757 75 22.9929 74.0172 22.9929 72.8027C22.9929 64.3226 29.8937 57.4219 38.3738 57.4219C46.8539 57.4219 53.7546 64.3226 53.7546 72.8027Z" fill="#46B753"/>
<path d="M38.3738 57.4219C33.5265 57.4219 29.5847 53.4801 29.5847 48.6328C29.5847 43.7855 33.5265 39.8438 38.3738 39.8438C43.2211 39.8438 47.1628 43.7855 47.1628 48.6328C47.1628 53.4801 43.2211 57.4219 38.3738 57.4219Z" fill="#46B753"/>
<path d="M26.6405 56.9385C22.3337 60.1024 19.3455 65.0243 18.7304 70.6055H3.07104C1.84043 70.6055 0.873779 69.6388 0.873779 68.4082C0.873779 59.9268 7.91968 53.0273 16.4011 53.0273C20.2683 53.0273 23.8718 54.4777 26.6405 56.9385Z" fill="#46B753"/>
<path d="M16.4011 53.0273C11.5538 53.0273 7.61206 49.0856 7.61206 44.2383C7.61206 39.391 11.5538 35.4492 16.4011 35.4492C21.2484 35.4492 25.1902 39.391 25.1902 44.2383C25.1902 49.0856 21.2484 53.0273 16.4011 53.0273Z" fill="#46B753"/>
<path d="M75.8737 68.4082C75.8737 69.6388 74.907 70.6055 73.6764 70.6055H58.0171C57.402 65.0243 54.4139 60.1025 50.1069 56.9385C52.8756 54.4777 56.4792 53.0273 60.3463 53.0273C68.8278 53.0273 75.8737 59.9268 75.8737 68.4082Z" fill="#46B753"/>
<path d="M60.3464 53.0273C55.4991 53.0273 51.5574 49.0856 51.5574 44.2383C51.5574 39.391 55.4991 35.4492 60.3464 35.4492C65.1938 35.4492 69.1355 39.391 69.1355 44.2383C69.1355 49.0856 65.1938 53.0273 60.3464 53.0273Z" fill="#46B753"/>
<path d="M64.741 0H12.0066C10.7761 0 9.80933 0.966797 9.80933 2.19727V28.8574C9.80933 30.0879 10.7761 31.0547 12.0066 31.0547H18.5984V31.2393C21.5779 31.7402 24.2219 33.2446 26.1687 35.3936L30.5076 31.0547H46.24L50.5789 35.3936C52.5256 33.2446 55.1697 31.7402 58.1492 31.2393V31.0547H64.741C65.9714 31.0547 66.9382 30.0879 66.9382 28.8574V2.19727C66.9382 0.966797 65.9714 0 64.741 0ZM20.7957 9.08203C22.0261 9.08203 22.9929 10.0488 22.9929 11.2793C22.9929 12.5098 22.0261 13.4766 20.7957 13.4766C19.5652 13.4766 18.5984 12.5098 18.5984 11.2793C18.5984 10.0488 19.5652 9.08203 20.7957 9.08203ZM47.1628 22.2656H20.7957C19.5652 22.2656 18.5984 21.2988 18.5984 20.0684C18.5984 18.8379 19.5652 17.8711 20.7957 17.8711H47.1628C48.3933 17.8711 49.3601 18.8379 49.3601 20.0684C49.3601 21.2988 48.3933 22.2656 47.1628 22.2656ZM55.9519 22.2656C54.7214 22.2656 53.7546 21.2988 53.7546 20.0684C53.7546 18.8379 54.7214 17.8711 55.9519 17.8711C57.1824 17.8711 58.1492 18.8379 58.1492 20.0684C58.1492 21.2988 57.1824 22.2656 55.9519 22.2656ZM55.9519 13.4766H29.5847C28.3542 13.4766 27.3875 12.5098 27.3875 11.2793C27.3875 10.0488 28.3542 9.08203 29.5847 9.08203H55.9519C57.1824 9.08203 58.1492 10.0488 58.1492 11.2793C58.1492 12.5098 57.1824 13.4766 55.9519 13.4766Z" fill="#46B753"/>
</svg>
