<svg width="75" height="75" viewBox="0 0 75 75" fill="none" xmlns="http://www.w3.org/2000/svg">
<path d="M69.796 30.9082C68.9549 26.7905 67.3154 22.8486 64.9874 19.3339L68.573 15.7482L59.2518 6.427L55.6661 10.0126C52.1514 7.68457 48.2095 6.04526 44.0918 5.204V0H30.9082V5.204C26.7905 6.04512 22.8486 7.68457 19.3339 10.0126L15.7482 6.427L6.427 15.7482L10.0126 19.3339C7.68457 22.8486 6.04526 26.7905 5.204 30.9082H0V44.0918H5.204C6.04512 48.2095 7.68457 52.1514 10.0126 55.6661L6.427 59.2518L15.7482 68.573L28.8438 55.4795L26.6036 53.9946C21.0441 50.3082 17.7246 44.1412 17.7246 37.5C17.7246 26.5953 26.5953 17.7246 37.5 17.7246C48.4047 17.7246 57.2754 26.5953 57.2754 37.5C57.2754 44.1412 53.9559 50.3082 48.3962 53.9946L46.1561 55.4795L59.2516 68.573L68.5729 59.2518L64.9872 55.6661C67.3154 52.1514 68.9547 48.2095 69.796 44.0918H75V30.9082H69.796Z" fill="#46B753"/>
<path d="M30.9082 39.6973H44.0918V61.8164H30.9082V39.6973Z" fill="#46B753"/>
<path d="M30.9082 32.5862V35.3027H44.0918V32.5862L37.5 19.4026L30.9082 32.5862Z" fill="#46B753"/>
<path d="M30.9082 68.4082C30.9082 72.0431 33.8651 75 37.5 75C41.1349 75 44.0918 72.0431 44.0918 68.4082V66.2109H30.9082V68.4082Z" fill="#46B753"/>
</svg>
