<svg width="42" height="42" viewBox="0 0 42 42" fill="none" xmlns="http://www.w3.org/2000/svg">
<circle cx="21" cy="21" r="21" fill="url(#paint0_linear_2101_1447)"/>
<path d="M30.3626 29.2183L25.6018 24.2667C26.8259 22.8116 27.4965 20.9807 27.4965 19.0747C27.4965 14.6214 23.8734 10.9983 19.4201 10.9983C14.9669 10.9983 11.3438 14.6214 11.3438 19.0747C11.3438 23.5279 14.9669 27.1511 19.4201 27.1511C21.092 27.1511 22.6851 26.6468 24.0472 25.6896L28.8443 30.6787C29.0448 30.8869 29.3144 31.0017 29.6034 31.0017C29.877 31.0017 30.1365 30.8975 30.3335 30.7078C30.752 30.3051 30.7654 29.6372 30.3626 29.2183ZM19.4201 13.1051C22.7118 13.1051 25.3897 15.783 25.3897 19.0747C25.3897 22.3663 22.7118 25.0442 19.4201 25.0442C16.1285 25.0442 13.4506 22.3663 13.4506 19.0747C13.4506 15.783 16.1285 13.1051 19.4201 13.1051Z" fill="#231F20"/>
<defs>
<linearGradient id="paint0_linear_2101_1447" x1="21" y1="0" x2="21" y2="42" gradientUnits="userSpaceOnUse">
<stop stop-color="#46B753"/>
<stop offset="1" stop-color="#E0DC32"/>
</linearGradient>
</defs>
</svg>
