<svg width="49" height="49" viewBox="0 0 49 49" fill="none" xmlns="http://www.w3.org/2000/svg">
<path d="M17.3223 40.3867V41.8223C17.3223 44.197 15.3904 46.1289 13.0156 46.1289C12.2222 46.1289 11.5801 46.771 11.5801 47.5645C11.5801 48.3579 12.2222 49 13.0156 49H35.9844C36.7778 49 37.4199 48.3579 37.4199 47.5645C37.4199 46.771 36.7778 46.1289 35.9844 46.1289C33.6096 46.1289 31.6777 44.197 31.6777 41.8223V40.3867H17.3223Z" fill="#46B753"/>
<path d="M8.70898 23.0645H11.5801V25.9355H8.70898V23.0645Z" fill="#46B753"/>
<path d="M47.5645 0C48.3579 0 49 0.642072 49 1.43555V36.0801C49 36.8736 48.3579 37.5156 47.5645 37.5156H1.43555C0.642072 37.5156 0 36.8736 0 36.0801V1.43555C0 0.642072 0.642072 0 1.43555 0H47.5645ZM7.27344 20.1934C6.47996 20.1934 5.83789 20.8354 5.83789 21.6289V27.3711C5.83789 28.1646 6.47996 28.8066 7.27344 28.8066H13.0156C13.8091 28.8066 14.4512 28.1646 14.4512 27.3711V21.6289C14.4512 20.8354 13.8091 20.1934 13.0156 20.1934H7.27344ZM18.7578 25.9355C17.9643 25.9355 17.3223 26.5776 17.3223 27.3711C17.3223 28.1646 17.9643 28.8066 18.7578 28.8066H41.7266C42.52 28.8066 43.1621 28.1646 43.1621 27.3711C43.1621 26.5776 42.52 25.9355 41.7266 25.9355H18.7578ZM18.7578 20.1934C17.9643 20.1934 17.3223 20.8354 17.3223 21.6289C17.3223 22.4224 17.9643 23.0645 18.7578 23.0645H33.1133C33.9068 23.0645 34.5488 22.4224 34.5488 21.6289C34.5488 20.8354 33.9068 20.1934 33.1133 20.1934H18.7578ZM18.7578 14.4512C17.9643 14.4512 17.3223 15.0932 17.3223 15.8867C17.3223 16.6802 17.9643 17.3223 18.7578 17.3223H41.7266C42.52 17.3223 43.1621 16.6802 43.1621 15.8867C43.1621 15.0932 42.52 14.4512 41.7266 14.4512H18.7578ZM7.27051 8.36426C6.44232 8.36439 5.77071 9.03608 5.77051 9.86426V15.6123C5.77051 16.4407 6.44219 17.1122 7.27051 17.1123H13.0186C13.8469 17.1122 14.5186 16.4407 14.5186 15.6123V9.86426C14.5184 9.03604 13.8468 8.36432 13.0186 8.36426H7.27051ZM11.5801 14.1738H8.70898V11.3027H11.5801V14.1738ZM18.7578 8.70898C17.9643 8.70898 17.3223 9.35106 17.3223 10.1445C17.3223 10.938 17.9643 11.5801 18.7578 11.5801H33.1133C33.9068 11.5801 34.5488 10.938 34.5488 10.1445C34.5488 9.35106 33.9068 8.70898 33.1133 8.70898H18.7578Z" fill="#46B753"/>
</svg>
