<svg width="50" height="49" viewBox="0 0 50 49" fill="none" xmlns="http://www.w3.org/2000/svg">
<path d="M11.3477 35.1708L12.002 34.0607H3.65918V4.89612H0V37.6467H13.9834C13.9771 37.3235 13.9869 37.0001 14.0107 36.6772L11.3477 35.1708Z" fill="#46B753"/>
<path d="M46.3408 7.26379V34.0607H37.998L38.6152 35.1086L35.9834 36.5978C36.0114 36.9463 36.0233 37.297 36.0166 37.6467H50V7.26379H46.3408Z" fill="#46B753"/>
<path d="M16.1074 27.0916L18.7393 28.5817C19.2061 28.2649 19.6943 27.9855 20.2041 27.7443V24.7325H23.5352V6.1068C23.5352 5.5412 23.4268 4.99952 23.2285 4.50186C22.5713 2.84524 20.9268 1.66809 19.0059 1.66809H6.58887V31.1896H13.6934L16.1074 27.0916ZM20.0586 14.6895H10.0654V11.8184H20.0586V14.6895ZM20.0586 8.23237H10.0654V5.36127H20.0586V8.23237ZM10.0654 18.2755H20.0586V21.1465H10.0654V18.2755Z" fill="#46B753"/>
<path d="M29.7227 27.7089C30.2344 27.9472 30.7256 28.2228 31.1943 28.5358L33.8564 27.0304L36.3066 31.1896H43.4111C43.4111 28.5116 43.4111 3.53267 43.4111 1.66809H30.9941C28.9951 1.66809 27.2959 2.9419 26.6963 4.70571C26.5459 5.14594 26.4648 5.61776 26.4648 6.1068V24.7325H29.7227V27.7089ZM39.9346 21.1465H29.9414V18.2755H39.9346V21.1465ZM39.752 5.36127V5.47038V14.6895H30.124V5.36127H39.752Z" fill="#46B753"/>
<path d="M33.0537 8.23242H36.8223V11.8184H33.0537V8.23242Z" fill="#46B753"/>
<path d="M32.8076 39.7742C32.8433 39.5673 32.9431 38.9877 32.9766 38.7913C33.1302 37.8967 33.1253 36.9721 32.9658 36.0801L32.7871 35.0905C32.7961 35.0854 34.6054 34.0612 34.6133 34.0569C34.1234 33.2256 33.2727 31.7823 32.7842 30.9523C32.5068 31.109 31.2418 31.8245 30.9395 31.9955C30.7716 31.8615 30.097 31.3055 29.9385 31.1896C29.2754 30.6881 28.5439 30.2929 27.7588 30.0134L26.793 29.6699V27.6036C25.7326 27.6036 24.1937 27.6036 23.1338 27.6036V29.6881L22.1797 30.0355C21.417 30.313 20.707 30.7006 20.0625 31.1896C19.8671 31.332 19.2063 31.8889 19.0088 32.049C18.7805 31.9198 17.3715 31.1216 17.1797 31.0135C16.6911 31.8434 15.838 33.2883 15.3496 34.1191L17.1924 35.1613L17.0234 36.1442C16.87 37.0404 16.875 37.9625 17.0342 38.8555C17.0625 39.0123 17.1825 39.6768 17.2129 39.845C16.7986 40.0795 15.7889 40.6512 15.3867 40.8786L17.2158 43.9832L19.0605 42.9401L19.8447 43.5765C20.5635 44.1593 21.3691 44.612 22.2412 44.9221L23.207 45.2657V47.3319H26.8662V45.2475L27.8203 44.9001C28.6895 44.5833 29.4912 44.1239 30.2051 43.5353L30.9912 42.8865L32.8203 43.922L34.6504 40.8164C34.303 40.6203 33.1727 39.9807 32.8076 39.7742ZM23.5352 36.0322H26.4648V38.9033H23.5352C23.5352 38.304 23.5352 36.0322 23.5352 36.0322Z" fill="#46B753"/>
<rect x="8.34668" y="4.12708" width="13.6274" height="19.1707" fill="#46B753"/>
<rect x="28.124" y="4.12708" width="13.6274" height="19.1707" fill="#46B753"/>
</svg>
