<svg width="50" height="50" viewBox="0 0 50 50" fill="none" xmlns="http://www.w3.org/2000/svg">
<path d="M28.6621 0C27.2397 0 25.9842 0.550195 25 1.59785C24.0158 0.550195 22.7603 0 21.3379 0C18.463 0 16.2109 2.25527 16.2109 5.13438C16.2109 8.179 18.7228 10.1359 22.199 12.8444C22.8016 13.3139 23.4245 13.7992 24.085 14.3275C24.3524 14.5415 24.6763 14.6485 25 14.6485C25.3237 14.6485 25.6476 14.5415 25.915 14.3275C26.5755 13.7992 27.1984 13.3139 27.801 12.8444C31.2773 10.1359 33.7891 8.179 33.7891 5.13438C33.7891 2.25527 31.537 0 28.6621 0Z" fill="white"/>
<path d="M0.0787415 27.1196C0.227472 27.5516 0.567999 27.8907 1.0014 28.0336L17.261 32.9317C17.8824 33.1409 18.5747 32.9081 18.9433 32.3552L23.1175 26.0924C23.3707 25.712 23.4323 25.2356 23.2849 24.8049C23.1362 24.3729 22.7956 24.0338 22.3622 23.8909L6.10267 18.9928C5.47464 18.7796 4.78802 19.0171 4.42034 19.5693L0.246124 25.8321C-0.00709833 26.2126 -0.0686218 26.689 0.0787415 27.1196Z" fill="white"/>
<path d="M49.9216 27.1196C50.069 26.689 50.0075 26.2126 49.7542 25.8321L45.58 19.5693C45.2123 19.0171 44.5257 18.7796 43.8977 18.9928L27.6381 23.8909C27.2047 24.0339 26.8642 24.373 26.7155 24.8049C26.5681 25.2355 26.6296 25.7119 26.8828 26.0924L31.0571 32.3552C31.4256 32.9081 32.118 33.141 32.7394 32.9317L48.999 28.0336C49.4324 27.8906 49.7728 27.5516 49.9216 27.1196Z" fill="white"/>
<path d="M23.5353 30.7485L21.3809 33.9804C20.2681 35.6446 18.1953 36.3371 16.3269 35.7084L5.85938 32.5668V42.3039C5.85938 42.9348 6.26279 43.4941 6.86074 43.693L23.5352 49.2185V30.7485H23.5353Z" fill="white"/>
<path d="M44.1406 42.304V32.5669L33.5888 35.7356C31.9188 36.3032 29.7779 35.7131 28.6206 33.9833L26.4648 30.7485V49.2187L43.1393 43.6932C43.7372 43.4942 44.1406 42.9349 44.1406 42.304Z" fill="white"/>
<path d="M31.9631 13.2734C31.2348 13.8829 30.4451 14.4985 29.6025 15.155C29.0086 15.6177 28.3948 16.0958 27.7458 16.615C26.9696 17.2359 25.9946 17.5779 25.0007 17.5779C24.0066 17.5779 23.0317 17.2359 22.2555 16.6149C21.6065 16.0959 18.7668 13.8829 18.0384 13.2734L8.12891 16.5477L23.2126 21.0872C23.9039 21.3145 24.5088 21.6929 24.9977 22.1771C25.4778 21.6962 26.065 21.3246 26.7202 21.1087L41.8691 16.5466L31.9631 13.2734Z" fill="white"/>
</svg>
