<svg width="20" height="14" viewBox="0 0 20 14" fill="none" xmlns="http://www.w3.org/2000/svg">
<path d="M9.99994 9.60751C11.7004 9.60751 13.079 8.21997 13.079 6.50834C13.079 4.79672 11.7004 3.40918 9.99994 3.40918C8.29943 3.40918 6.9209 4.79672 6.9209 6.50834C6.9209 8.21997 8.29943 9.60751 9.99994 9.60751Z" fill="#46B753"/>
<path d="M19.6933 5.64978C17.3265 2.77104 13.7438 0 10.0001 0C6.25555 0 2.67205 2.77298 0.306846 5.64978C-0.102282 6.14719 -0.102282 6.8693 0.306846 7.36672C0.901485 8.08998 2.14811 9.48616 3.8131 10.7061C8.00633 13.7786 11.9845 13.7854 16.187 10.7061C17.852 9.48616 19.0986 8.08998 19.6933 7.36672C20.1012 6.87027 20.1033 6.14882 19.6933 5.64978ZM10.0001 2.16942C12.3771 2.16942 14.3107 4.11569 14.3107 6.50825C14.3107 8.9008 12.3771 10.8471 10.0001 10.8471C7.62303 10.8471 5.68939 8.9008 5.68939 6.50825C5.68939 4.11569 7.62303 2.16942 10.0001 2.16942Z" fill="#46B753"/>
</svg>
