<svg width="246" height="101" viewBox="0 0 246 101" fill="none" xmlns="http://www.w3.org/2000/svg">
<g clip-path="url(#clip0_262_98)">
<path d="M243.941 88.499C244.047 88.3839 244.19 88.3106 244.346 88.2923C244.502 88.3124 244.647 88.3853 244.756 88.499L245.712 89.442L245.904 89.6387C245.977 89.7233 246.019 89.8297 246.025 89.9412C246.024 90.0597 245.981 90.1739 245.904 90.2639L245.712 90.4606L244.756 91.4036L244.578 91.5498C244.515 91.5985 244.436 91.6235 244.356 91.6204C244.271 91.6267 244.186 91.6016 244.118 91.5498L243.941 91.4036L242.985 90.4606L242.793 90.2639C242.755 90.2254 242.725 90.1797 242.705 90.1295C242.685 90.0792 242.675 90.0255 242.676 89.9715C242.674 89.8502 242.715 89.732 242.793 89.6387L242.985 89.442L243.941 88.499ZM236.414 86.2399C236.553 86.2593 236.694 86.2593 236.834 86.2399C236.95 86.1945 237.011 86.0735 237.011 85.8667C236.999 85.4311 236.835 85.0134 236.545 84.6867C236.401 84.5216 236.222 84.3898 236.021 84.3005C235.82 84.2111 235.602 84.1663 235.383 84.1692C235.163 84.1721 234.946 84.2226 234.748 84.3172C234.549 84.4118 234.374 84.5482 234.234 84.717C233.949 85.0608 233.799 85.4965 233.814 85.9424C233.814 86.1693 233.905 86.2752 234.148 86.2651L236.414 86.2399ZM238.275 86.9509H234.188C233.96 86.9509 233.844 87.1072 233.834 87.3997C233.865 88.1287 234.115 88.8316 234.552 89.4168C234.747 89.7271 235.017 89.9828 235.339 90.1593C235.66 90.3358 236.022 90.4274 236.389 90.4253C236.929 90.4312 237.458 90.2729 237.906 89.9715L238.559 89.4672C238.623 89.4046 238.707 89.3655 238.797 89.3563C238.829 89.3565 238.861 89.3643 238.89 89.3792C238.919 89.3941 238.944 89.4156 238.963 89.442C239.019 89.4852 239.056 89.5487 239.065 89.6185C239.065 89.8807 238.797 90.1984 238.296 90.5715C237.919 90.8677 237.497 91.1026 237.046 91.2674C236.546 91.4725 236.009 91.5754 235.468 91.57C234.969 91.5855 234.473 91.493 234.014 91.2989C233.554 91.1047 233.143 90.8136 232.807 90.4455C232.139 89.692 231.786 88.7122 231.821 87.7073C231.818 87.2042 231.895 86.7039 232.048 86.2247C232.276 85.4408 232.713 84.7331 233.313 84.1774C233.918 83.6138 234.716 83.3033 235.544 83.3101C236.051 83.3044 236.554 83.4103 237.015 83.6204C237.477 83.8304 237.887 84.1394 238.215 84.5254C238.541 84.8935 238.789 85.3242 238.943 85.7911C239.01 86.0004 239.051 86.2172 239.065 86.4366C239.024 86.8047 238.766 86.966 238.255 86.9509H238.275ZM225.361 80.6274C225.375 80.3488 225.356 80.0695 225.305 79.7953C225.244 79.5734 225.027 79.4171 224.658 79.3415C224.544 79.3288 224.433 79.2982 224.329 79.2507C224.274 79.2314 224.227 79.195 224.194 79.1469C224.161 79.0988 224.145 79.0415 224.147 78.9834V78.8876C224.177 78.807 224.293 78.7414 224.491 78.6859C225.352 78.501 226.182 78.1918 226.954 77.7682C227.045 77.7127 227.147 77.6798 227.253 77.6724C227.415 77.6724 227.491 77.7833 227.48 78.0052C227.48 78.0825 227.465 78.3245 227.435 78.7313C227.394 79.3163 227.374 79.9668 227.374 80.6728V88.7814V89.7244C227.357 89.9062 227.396 90.089 227.486 90.2479C227.577 90.4067 227.714 90.5338 227.88 90.6119L228.386 90.8136C228.553 90.8842 228.644 90.9649 228.659 91.0456V91.1313C228.659 91.3784 228.533 91.4944 228.28 91.4843C228.139 91.4811 227.999 91.4693 227.86 91.449C227.461 91.394 227.058 91.3687 226.656 91.3733C226.117 91.3749 225.578 91.4035 225.042 91.4591H224.536C224.248 91.4591 224.101 91.3431 224.096 91.1515C224.091 90.9598 224.223 90.864 224.471 90.7884C224.734 90.7461 224.971 90.6054 225.133 90.3951C225.25 90.1585 225.307 89.8972 225.3 89.6336C225.3 89.3916 225.3 89.0991 225.3 88.7461L225.361 80.6274ZM215.466 88.5343V89.2453C215.469 89.4742 215.524 89.6994 215.629 89.9032C215.733 90.1071 215.884 90.284 216.068 90.4203C216.417 90.6937 216.849 90.8413 217.292 90.8388C217.699 90.8599 218.1 90.7361 218.424 90.4894C218.747 90.2427 218.972 89.8893 219.058 89.4924C219.185 89.0947 219.248 88.6794 219.245 88.262C219.253 87.4571 219.058 86.663 218.678 85.9524C218.515 85.5805 218.249 85.2625 217.912 85.0357C217.574 84.8089 217.178 84.6826 216.771 84.6716C216.464 84.6734 216.164 84.7683 215.911 84.9439C215.788 85.0299 215.685 85.1409 215.609 85.2695C215.532 85.3982 215.483 85.5415 215.466 85.6902V86.0483V88.5343ZM215.466 84.5002C215.579 84.3862 215.701 84.2817 215.83 84.1875C216.423 83.6867 217.169 83.4021 217.945 83.3807C218.381 83.3794 218.81 83.4812 219.199 83.6775C219.588 83.8739 219.924 84.1592 220.181 84.5102C220.687 85.2141 220.947 86.0649 220.919 86.9307C220.96 88.0961 220.603 89.2408 219.908 90.1782C219.564 90.6483 219.11 91.0273 218.585 91.2822C218.06 91.5371 217.481 91.6602 216.898 91.6406C216.184 91.6515 215.482 91.4591 214.874 91.0859L214.485 90.8388L213.782 91.5297C213.752 91.5639 213.716 91.5915 213.675 91.6107C213.634 91.6298 213.589 91.64 213.544 91.6406C213.372 91.6406 213.291 91.5498 213.306 91.3683C213.316 91.1989 213.338 91.0304 213.372 90.864C213.405 90.6573 213.421 90.4481 213.417 90.2387V80.6274V80.0273C213.414 79.8465 213.341 79.6738 213.214 79.5446C213.087 79.4153 212.916 79.3391 212.735 79.3314L212.406 79.2507C212.35 79.2365 212.3 79.2028 212.267 79.1557C212.234 79.1085 212.218 79.051 212.224 78.9935V78.8977C212.257 78.8103 212.369 78.7397 212.558 78.6859C213.038 78.5649 213.402 78.4641 213.655 78.3834C214.099 78.2518 214.519 78.051 214.9 77.7883C214.979 77.7274 215.073 77.6875 215.173 77.6724C215.365 77.6724 215.456 77.8993 215.451 78.2876L215.466 84.5002ZM206.219 80.9703C206.103 80.848 206.033 80.6893 206.022 80.5215C206.034 80.4178 206.068 80.3179 206.123 80.229L206.239 80.0474L206.851 79.291C206.969 79.1151 207.15 78.9907 207.357 78.9431C207.445 78.9536 207.529 78.9841 207.602 79.0322C207.676 79.0803 207.738 79.1447 207.782 79.2205L208.409 80.0525L208.571 80.2744C208.608 80.3304 208.631 80.3944 208.637 80.461C208.606 80.6315 208.523 80.7883 208.399 80.9098L207.641 81.762C207.548 81.8826 207.412 81.9622 207.261 81.9839C207.13 81.9839 206.988 81.8981 206.821 81.6964L206.219 80.9703ZM206.315 86.3407V85.7407C206.311 85.5598 206.239 85.3872 206.112 85.2579C205.985 85.1287 205.814 85.0524 205.632 85.0448L205.303 84.9591C205.167 84.9137 205.101 84.8279 205.121 84.7069C205.142 84.5859 205.248 84.4598 205.486 84.3993C206.343 84.2165 207.17 83.9108 207.939 83.4916C208.028 83.432 208.131 83.3956 208.237 83.3857C208.404 83.3857 208.48 83.4916 208.475 83.7084L208.415 84.4094C208.384 84.6817 208.364 85.312 208.364 86.3004V88.8217C208.364 89.1646 208.364 89.4823 208.394 89.7647C208.388 90.0358 208.486 90.299 208.667 90.501C208.886 90.6567 209.129 90.776 209.386 90.854C209.449 90.8691 209.509 90.8989 209.559 90.9409C209.609 90.9829 209.648 91.036 209.674 91.096V91.1817C209.674 91.4238 209.538 91.5347 209.269 91.5246C209.136 91.5214 209.002 91.5096 208.87 91.4893C208.474 91.4334 208.075 91.4082 207.676 91.4137C207.134 91.4138 206.592 91.4424 206.052 91.4994H205.577C205.273 91.4994 205.121 91.3834 205.121 91.1817C205.121 90.98 205.238 90.9044 205.496 90.8287C205.756 90.7801 205.989 90.6362 206.148 90.4253C206.263 90.1952 206.32 89.9409 206.315 89.6841C206.315 89.3613 206.315 89.0638 206.315 88.7864V86.3407ZM196.152 88.9327C196.152 88.6755 196.264 88.5494 196.446 88.5595C196.491 88.5575 196.535 88.5655 196.576 88.583C196.617 88.6004 196.654 88.6269 196.684 88.6604L196.79 88.8419L197.048 89.3462C197.554 90.3547 198.156 90.859 198.889 90.859C199.23 90.8646 199.564 90.7642 199.845 90.5715C199.996 90.4848 200.122 90.3609 200.21 90.2116C200.299 90.0623 200.347 89.8928 200.351 89.7194C200.351 89.2857 200.048 88.9377 199.476 88.6654C199.203 88.5478 198.904 88.4267 198.581 88.3023C198.179 88.1589 197.787 87.9905 197.407 87.7981C197.033 87.6219 196.72 87.339 196.507 86.9853C196.295 86.6316 196.193 86.223 196.213 85.8113C196.199 85.4704 196.268 85.1311 196.413 84.8222C196.559 84.5133 196.776 84.2437 197.048 84.0362C197.353 83.795 197.707 83.6229 198.085 83.532C198.485 83.4422 198.894 83.3982 199.304 83.4008C200.503 83.4008 201.14 83.5874 201.211 83.9404C201.211 84.0564 201.257 84.1925 201.277 84.3438L201.358 85.2919C201.358 85.4936 201.302 85.6096 201.216 85.6449H201.12C201.06 85.6474 201.001 85.6343 200.947 85.6069C200.894 85.5795 200.849 85.5387 200.816 85.4885C200.734 85.3955 200.664 85.2921 200.609 85.1809C200.433 84.8768 200.18 84.6238 199.876 84.4469C199.572 84.27 199.226 84.1754 198.874 84.1724C198.602 84.1676 198.333 84.2392 198.1 84.3791C197.98 84.4421 197.88 84.5363 197.809 84.6518C197.739 84.7672 197.701 84.8996 197.7 85.0347C197.715 85.2232 197.784 85.4035 197.9 85.5531C198.016 85.7028 198.174 85.8153 198.353 85.8768C198.56 85.9726 198.798 86.0735 199.071 86.1693C199.486 86.3105 199.825 86.4365 200.083 86.5424C200.416 86.6641 200.73 86.834 201.014 87.0467C201.278 87.2738 201.489 87.5569 201.63 87.8753C201.77 88.1937 201.838 88.5394 201.828 88.8873C201.854 89.4279 201.705 89.9626 201.402 90.4121C201.1 90.8616 200.66 91.2022 200.149 91.3834C199.763 91.5566 199.343 91.6427 198.92 91.6356C198.554 91.6432 198.189 91.6059 197.832 91.5246L197.103 91.3733C196.937 91.3431 196.79 91.3179 196.653 91.3027C196.405 91.2674 196.264 91.1968 196.233 91.0809C196.193 90.916 196.179 90.7458 196.193 90.5766V89.4874L196.152 88.9327ZM186.642 88.9327C186.642 88.6755 186.748 88.5494 186.931 88.5595C186.975 88.5571 187.02 88.565 187.061 88.5824C187.102 88.5999 187.139 88.6266 187.168 88.6604L187.28 88.8419L187.533 89.3462C188.038 90.3547 188.64 90.859 189.374 90.859C189.716 90.8643 190.052 90.7639 190.335 90.5715C190.486 90.4848 190.612 90.3609 190.7 90.2116C190.789 90.0623 190.837 89.8928 190.841 89.7194C190.841 89.2857 190.537 88.9377 189.966 88.6654C189.693 88.5494 189.399 88.4284 189.075 88.3023C188.672 88.1588 188.279 87.9904 187.897 87.7981C187.523 87.6219 187.21 87.339 186.997 86.9853C186.785 86.6316 186.682 86.223 186.703 85.8113C186.689 85.4699 186.759 85.1302 186.905 84.8212C187.051 84.5122 187.27 84.2429 187.543 84.0362C187.839 83.7969 188.184 83.6248 188.554 83.532C188.955 83.4425 189.364 83.3985 189.774 83.4008C190.972 83.4008 191.61 83.5874 191.681 83.9404C191.681 84.0564 191.726 84.1925 191.746 84.3438L191.827 85.2919C191.827 85.4936 191.772 85.6096 191.691 85.6449H191.59C191.53 85.6474 191.47 85.6343 191.417 85.6069C191.364 85.5795 191.319 85.5387 191.286 85.4885C191.205 85.3942 191.136 85.291 191.079 85.1809C190.903 84.8775 190.651 84.625 190.348 84.4481C190.044 84.2713 189.7 84.1763 189.349 84.1724C189.075 84.1674 188.805 84.239 188.57 84.3791C188.45 84.4421 188.349 84.5363 188.279 84.6518C188.208 84.7672 188.171 84.8996 188.17 85.0347C188.184 85.2232 188.254 85.4035 188.37 85.5531C188.486 85.7028 188.643 85.8153 188.823 85.8768C189.03 85.9726 189.273 86.0735 189.546 86.1693C189.961 86.3105 190.3 86.4365 190.558 86.5424C190.89 86.6663 191.203 86.836 191.488 87.0467C191.752 87.2741 191.962 87.5573 192.102 87.8757C192.242 88.1942 192.309 88.5398 192.298 88.8873C192.324 89.4273 192.175 89.9615 191.874 90.4109C191.573 90.8604 191.134 91.2013 190.623 91.3834C190.235 91.5565 189.814 91.6426 189.389 91.6356C189.023 91.6432 188.658 91.6059 188.301 91.5246L187.573 91.3733C187.411 91.3431 187.259 91.3179 187.128 91.3027C186.875 91.2674 186.738 91.1968 186.703 91.0809C186.665 90.9156 186.652 90.7457 186.663 90.5766V89.4874L186.642 88.9327ZM176.581 86.5021C176.579 87.2657 176.699 88.0247 176.935 88.7511C177.355 90.158 178.033 90.859 178.958 90.864C179.24 90.877 179.52 90.8219 179.776 90.7034C180.031 90.5848 180.254 90.4064 180.425 90.1833C180.745 89.7193 180.9 89.1618 180.865 88.5999C180.881 87.4038 180.59 86.2236 180.021 85.1708C179.881 84.8642 179.654 84.6051 179.368 84.4258C179.082 84.2465 178.75 84.1549 178.412 84.1623C177.193 84.1623 176.576 84.954 176.56 86.5021M174.537 87.5913C174.523 87.0349 174.624 86.4815 174.835 85.966C175.045 85.4505 175.361 84.984 175.761 84.596C176.159 84.2001 176.633 83.8887 177.154 83.6807C177.676 83.4726 178.235 83.3723 178.796 83.3857C179.881 83.3593 180.932 83.7617 181.72 84.5052C182.112 84.8747 182.421 85.3227 182.627 85.8199C182.833 86.3171 182.931 86.852 182.914 87.3896C182.942 88.107 182.775 88.8186 182.432 89.4496C182.088 90.0805 181.58 90.6075 180.961 90.975C180.29 91.3926 179.518 91.6236 178.726 91.644C177.935 91.6644 177.152 91.4734 176.459 91.0909C175.803 90.7248 175.28 90.1596 174.967 89.4773C174.684 88.8889 174.541 88.2437 174.547 87.5913M165.917 89.2151C165.91 89.4189 165.932 89.6226 165.983 89.8202C166.152 90.1594 166.435 90.4288 166.782 90.5816C167.113 90.7716 167.488 90.8692 167.87 90.864C168.19 90.8818 168.505 90.7852 168.76 90.5917L168.826 90.5413C169.134 90.2315 169.372 89.86 169.525 89.4513C169.677 89.0427 169.741 88.6063 169.711 88.1712C169.713 87.8325 169.679 87.4944 169.61 87.1627C169.509 86.6722 169.31 86.2073 169.023 85.7961C168.855 85.4765 168.607 85.2057 168.303 85.0104C167.999 84.815 167.649 84.7018 167.288 84.6817C166.994 84.679 166.707 84.7652 166.463 84.9288C166.206 85.0718 166.011 85.3056 165.917 85.5843V85.8617V89.2151ZM166.17 84.3438C166.758 83.7469 167.557 83.403 168.396 83.3857C168.935 83.3794 169.463 83.5339 169.913 83.8295C170.89 84.4598 171.386 85.5289 171.391 87.0467C171.397 87.8019 171.247 88.5503 170.95 89.2453C170.614 90.0874 169.988 90.7827 169.185 91.2069C168.656 91.503 168.057 91.6544 167.45 91.6456C167.065 91.6476 166.681 91.5933 166.312 91.4843L165.937 91.3733V92.5029V93.4459C165.964 93.7125 166.077 93.9631 166.26 94.1597C166.443 94.3563 166.685 94.4881 166.949 94.5351C167.008 94.5476 167.064 94.5736 167.111 94.6113C167.159 94.6489 167.197 94.6971 167.222 94.7519V94.8377C167.222 95.0898 167.091 95.2159 166.828 95.2108L166.418 95.1806C165.968 95.1295 165.515 95.1026 165.062 95.0999C164.632 95.0999 164.147 95.1352 163.6 95.1806L163.094 95.2108C162.806 95.2108 162.664 95.0948 162.654 94.9083C162.644 94.7217 162.781 94.6158 163.029 94.5351C163.289 94.4862 163.523 94.3446 163.686 94.1367C163.797 93.9055 163.853 93.6517 163.848 93.3955C163.848 93.0979 163.848 92.8004 163.848 92.5029V86.3004V85.7054C163.842 85.5248 163.769 85.3529 163.643 85.2233C163.516 85.0936 163.346 85.0156 163.165 85.0044C163.051 84.9993 162.94 84.9719 162.836 84.9238C162.775 84.8939 162.725 84.8459 162.692 84.7862C162.66 84.7266 162.646 84.6584 162.654 84.5909V84.4699C162.68 84.364 162.796 84.2833 162.998 84.248L164.086 83.9808C164.523 83.8694 164.944 83.6998 165.335 83.4765C165.42 83.4161 165.52 83.3795 165.624 83.3706C165.796 83.3706 165.887 83.537 165.892 83.8749V84.5556L166.17 84.3438Z" fill="white"/>
<path d="M86.0671 65.5551V64.9601C86.9717 64.7043 87.8033 64.2401 88.4948 63.6051C89.1864 62.97 89.7185 62.1819 90.0483 61.3041C90.7767 59.4585 91.1392 55.4058 91.1359 49.1462V21.1694C91.1359 17.6798 90.8408 15.4778 90.2506 14.5634C89.6638 13.6457 88.5256 13.1464 86.8209 13.0506V12.4757C88.5283 12.2559 90.2185 11.9189 91.8795 11.4672C93.7404 10.9717 95.5698 10.3655 97.3579 9.65186C97.2416 11.2958 97.1505 13.1817 97.1 15.3602C97.0494 17.5386 97.0241 20.1457 97.0241 23.2016V48.7932C97.0241 55.3521 97.3782 59.5324 98.0864 61.3344C98.4288 62.2147 98.9732 63.0029 99.6759 63.636C100.379 64.269 101.22 64.7294 102.133 64.9802L102.098 65.5753C100.803 65.4996 99.4573 65.4341 98.0864 65.3988C96.7155 65.3635 95.3244 65.3484 93.913 65.3484C92.1729 65.3484 90.7008 65.3483 89.5373 65.3988C88.3739 65.4492 87.2053 65.4996 86.0823 65.5753" fill="white"/>
<path d="M65.4736 65.5551V64.9601C66.3785 64.705 67.2105 64.2411 67.9021 63.606C68.5938 62.9708 69.1257 62.1823 69.4548 61.3041C70.1832 59.4585 70.5457 55.4058 70.5424 49.1462V21.1694C70.5424 17.6798 70.249 15.4778 69.6622 14.5634C69.0703 13.6457 67.9321 13.1464 66.2274 13.0506V12.4757C67.9348 12.2556 69.625 11.9187 71.286 11.4672C73.1467 10.9711 74.9761 10.3649 76.7644 9.65186C76.6481 11.2958 76.5621 13.1817 76.5115 15.3602C76.4609 17.5386 76.4306 20.1457 76.4306 23.2016V48.7932C76.4306 55.3521 76.7864 59.5324 77.4979 61.3344C77.8383 62.2159 78.382 63.0053 79.085 63.6386C79.788 64.272 80.6307 64.7316 81.5448 64.9802L81.5044 65.5753C80.2094 65.4996 78.8688 65.4341 77.4979 65.3988C76.1271 65.3635 74.7309 65.3484 73.3246 65.3484C71.5844 65.3484 70.1124 65.3483 68.9438 65.3988C67.7753 65.4492 66.6169 65.4996 65.4888 65.5753" fill="white"/>
<path d="M49.6906 14.5735C49.6729 13.92 49.7894 13.2697 50.033 12.6627C50.2765 12.0557 50.6421 11.5047 51.1071 11.0436C51.5765 10.5784 52.1363 10.2137 52.7521 9.97173C53.368 9.72981 54.0269 9.6158 54.6885 9.63671C55.353 9.62354 56.0133 9.74453 56.6297 9.99238C57.2461 10.2402 57.8058 10.6098 58.2751 11.0789C58.7499 11.5289 59.1255 12.0723 59.378 12.6749C59.6306 13.2774 59.7546 13.9257 59.7421 14.5786C59.7601 15.227 59.6385 15.8717 59.3855 16.4693C59.1324 17.0669 58.7538 17.6035 58.2751 18.0429C57.798 18.4976 57.2357 18.8541 56.6203 19.0921C56.0049 19.33 55.3484 19.4447 54.6885 19.4296C54.0234 19.461 53.3588 19.3589 52.734 19.1293C52.1092 18.8998 51.537 18.5475 51.0514 18.0933C50.5915 17.6311 50.233 17.0787 49.9987 16.471C49.7645 15.8633 49.6596 15.2137 49.6906 14.5634" fill="white"/>
<path d="M47.6672 65.5552V64.9803C48.5527 64.7596 49.3716 64.3289 50.0542 63.7248C50.7368 63.1208 51.2629 62.3613 51.5877 61.5109C52.3009 59.7611 52.6601 56.1253 52.6601 50.6238V37.0539C52.6601 34.1594 52.3667 32.3003 51.7799 31.4767C51.1931 30.6446 50.0903 30.2059 48.4614 30.1303L48.426 29.5554C49.9496 29.3603 51.4586 29.0655 52.9434 28.6729C54.5571 28.2544 56.54 27.6644 58.8822 26.8223C58.7911 28.8091 58.7203 30.7909 58.6646 32.7878C58.609 34.7847 58.5888 36.7564 58.5888 38.7432V48.8588C58.5888 55.4143 58.9328 59.6048 59.641 61.4302C59.9697 62.3013 60.5078 63.0786 61.2081 63.694C61.9084 64.3094 62.7494 64.7442 63.6575 64.9601V65.535C62.6104 65.4644 61.4975 65.4039 60.3188 65.3635C59.1402 65.3232 57.5366 65.3131 55.5182 65.3131C53.9703 65.3131 52.5842 65.3131 51.3701 65.3635C50.1561 65.414 48.9218 65.4644 47.6672 65.535" fill="white"/>
<path d="M22.956 67.6428L8.51363 39.8071C6.26424 35.4368 4.56623 32.5322 3.41962 31.0934C2.26625 29.6411 1.12807 28.7385 0 28.4056V27.9014C0.131524 27.9014 0.349045 27.9014 0.682913 27.9417C3.35386 28.098 5.27612 28.1888 6.45478 28.1888C7.55756 28.1888 9.48994 28.1132 12.1862 27.977C12.7865 27.9266 13.2266 27.9014 13.5065 27.9014V28.4056C12.7235 28.5338 11.9798 28.8373 11.3313 29.2932C11.0942 29.4676 10.9022 29.6958 10.7712 29.9588C10.6401 30.2219 10.5737 30.5123 10.5775 30.806C10.63 31.4632 10.8013 32.1056 11.0834 32.702C11.6512 33.9603 12.2861 35.1875 12.9854 36.3781L25.8849 59.4283L35.562 39.9484C36.2805 38.5002 36.9057 37.0079 37.4337 35.4805C37.8133 34.5225 38.0551 33.5157 38.152 32.4902C38.1703 31.9923 38.0808 31.4964 37.8897 31.0361C37.6985 30.5758 37.4101 30.1619 37.0442 29.8226C36.1077 29.0592 34.9758 28.5719 33.7763 28.4157V27.9115C35.6328 28.0375 36.9936 28.1081 37.889 28.1485C38.7843 28.1888 39.6038 28.1989 40.3829 28.1989C41.3086 28.1989 42.2545 28.1989 43.2258 28.1485C44.197 28.098 45.5022 28.0375 47.131 27.9115V28.4157C45.7956 28.9956 44.3791 30.2664 42.8565 32.233C40.8841 34.9317 39.1284 37.7812 37.6057 40.7552L23.3859 67.6428H22.956Z" fill="white"/>
<path d="M179.499 46.8767C179.499 52.5044 180.801 56.8747 183.405 59.9877C186.008 63.1007 189.662 64.6438 194.367 64.6169C199.061 64.6169 202.68 63.0923 205.222 60.0432C207.765 56.994 209.032 52.6237 209.022 46.9322C209.022 41.3751 207.73 37.0569 205.147 33.9775C202.563 30.8981 198.945 29.3618 194.291 29.3685C189.64 29.3685 186.017 30.9048 183.42 33.9775C180.823 37.0502 179.521 41.3449 179.515 46.8616M172.387 46.791C172.387 41.3499 174.436 36.8871 178.518 33.4379C182.6 29.9887 187.887 28.249 194.367 28.249C200.847 28.249 206.093 29.9888 210.114 33.4833C214.136 36.9779 216.119 41.5365 216.119 47.1541C216.119 52.7716 214.095 57.3706 210.079 60.845C206.062 64.3194 200.72 66.0692 194.063 66.0692C187.639 66.0692 182.412 64.2891 178.382 60.729C174.352 57.1688 172.338 52.5279 172.342 46.8061" fill="#46B753"/>
<path d="M150.665 65.7064V65.1467C151.505 64.9646 152.291 64.5912 152.961 64.0558C153.632 63.5204 154.169 62.8375 154.53 62.0606C155.232 60.5175 155.582 57.1893 155.582 52.0761V39.5349C155.582 35.6621 155.287 33.3089 154.697 32.4751C154.107 31.6414 152.977 31.1976 151.308 31.1439L151.267 30.5841C152.623 30.3118 154.085 29.9639 155.658 29.5756C157.232 29.1873 159.022 28.678 161.02 28.0628L160.869 38.955C162.555 35.3545 164.578 32.6163 166.939 30.7404C169.167 28.9105 171.964 27.9119 174.851 27.9165C175.245 27.9165 175.569 27.9165 175.787 27.9165C176.004 27.9165 176.206 27.9518 176.389 27.9771L173.475 35.8739H173.121C172.669 35.3065 172.092 34.8507 171.435 34.5419C170.778 34.2332 170.058 34.0798 169.332 34.0938C168.15 34.0499 166.98 34.3346 165.952 34.9162C164.923 35.4977 164.078 36.3532 163.509 37.3867C162.16 39.592 161.486 42.7975 161.486 47.0031V51.2087C161.486 56.9036 161.823 60.5192 162.498 62.0555C163.175 63.5683 164.486 64.6122 166.403 65.1517L166.362 65.7115C165.022 65.6409 163.691 65.5804 162.371 65.5451C161.051 65.5098 159.761 65.4997 158.491 65.4997C157.419 65.4997 156.225 65.4997 154.92 65.5451C153.615 65.5905 152.193 65.6409 150.645 65.7115" fill="#46B753"/>
<path d="M127.087 76.5227C121.816 76.5227 117.693 77.5094 114.719 79.4827C111.76 81.4696 110.283 84.1775 110.283 87.6469C110.283 91.1162 111.896 93.92 115.129 95.9471C118.361 97.9743 122.828 98.9727 128.554 98.9727C134.861 98.9727 139.848 97.907 143.518 95.7757C147.185 93.6477 149.031 90.7733 149.031 87.1527C149.031 83.7287 147.14 81.1015 143.366 79.276C139.592 77.4506 134.169 76.5227 127.087 76.5227ZM128.483 28.1532C126.627 28.2268 124.805 28.6817 123.133 29.4896C121.461 30.2974 119.974 31.4407 118.766 32.848C115.999 36.0148 114.628 40.1447 114.628 45.2681C114.628 50.3915 115.984 54.5214 118.715 57.4613C121.447 60.4012 125.241 61.9039 130.057 61.9039C134.437 61.9039 137.847 60.3407 140.326 57.2243C142.804 54.108 144.029 49.741 144.029 44.1638C144.029 39.2119 142.728 35.2987 140.128 32.4244C138.765 30.9058 137.049 29.7439 135.13 29.0408L136.076 27.2103L137.533 27.5229L139.253 28.2188C143.435 30.0745 146.546 32.3824 148.586 35.1424C150.61 37.9007 151.621 41.2188 151.621 45.0614C151.621 50.3864 149.824 54.6509 146.229 57.8547C142.634 61.0585 137.491 62.9579 130.8 63.5529C129.966 63.6235 128.777 63.7042 127.259 63.8101C122.155 64.1328 119.585 65.2019 119.56 66.987C119.535 68.7721 123.167 70.0529 130.385 70.7841C131.397 70.885 132.151 70.9556 132.697 70.9858C141 71.8229 146.902 73.2752 150.402 75.3427C153.893 77.4153 155.643 80.4459 155.643 84.4196C155.643 89.4017 153.105 93.4157 148.03 96.4615C142.954 99.5073 136.13 101.02 127.558 101C120.59 101 114.877 99.7174 110.419 97.1523C105.947 94.631 103.711 91.3179 103.711 87.3393C103.711 84.1069 105.057 81.5049 107.758 79.4827C110.46 77.4606 114.598 75.9529 120.233 74.9746C117.198 74.6821 114.962 74.0871 113.561 73.2046C112.912 72.8513 112.372 72.3296 111.997 71.6947C111.622 71.0599 111.426 70.3358 111.431 69.5991C111.431 67.8644 112.336 66.397 114.132 65.2069C115.928 64.0168 118.649 63.0638 122.317 62.4032C117.44 61.3946 113.682 59.3776 111.006 56.3267C108.33 53.2759 107.005 49.5947 107.005 45.1673C107.005 39.8624 109.129 35.3895 113.378 31.7487C117.628 28.1079 122.905 26.2891 129.212 26.2925H129.46L128.483 28.1532Z" fill="#46B753"/>
<path d="M136.066 22.0517C125.539 24.0234 126.551 14.5381 121.396 10.5039C128.403 11.0536 137.968 10.9678 136.572 21.5524C136.572 21.6684 136.775 21.8752 136.795 22.0214L136.577 22.2685C136.521 22.1962 136.448 22.1387 136.364 22.1009C136.28 22.0631 136.189 22.0463 136.097 22.0517" fill="#E0DC32"/>
<path d="M141.343 53.2462C139.182 60.543 127.34 63.9922 120.359 56.2719C114.668 49.9685 115.984 39.52 122.631 34.0538C126.845 30.5794 129.956 29.3036 132.981 26.7419C142.086 19.0467 138.09 2.29492 127.037 0.015625C139.314 2.49158 143.062 20.1864 134.26 27.7504C131.256 30.3323 128.453 31.5475 124.649 35.148C107.809 50.3568 133.315 70.5275 141.343 53.2462Z" fill="#E0DC32"/>
<path d="M221.177 29.3886L223.029 32.0965H222.017L220.317 29.6357H218.678V32.0965H217.813V25.541H219.943C221.673 25.541 222.604 26.3125 222.604 27.5581C222.616 27.9807 222.48 28.3942 222.22 28.728C221.959 29.0618 221.591 29.2953 221.177 29.3886ZM219.847 26.363H218.673V28.8843H219.847C220.99 28.8843 221.704 28.5465 221.704 27.5883C221.704 26.6302 221.011 26.368 219.867 26.368L219.847 26.363Z" fill="white"/>
<path d="M220.459 33.9929C219.42 33.9899 218.405 33.68 217.543 33.1025C216.681 32.525 216.009 31.7057 215.614 30.748C215.219 29.7904 215.117 28.7374 215.321 27.7221C215.526 26.7068 216.027 25.7746 216.763 25.0434C217.499 24.3122 218.435 23.8147 219.454 23.6137C220.473 23.4128 221.529 23.5174 222.489 23.9144C223.448 24.3114 224.268 24.983 224.845 25.8443C225.422 26.7055 225.73 27.7179 225.73 28.7535C225.729 29.4426 225.592 30.1249 225.327 30.7612C225.062 31.3976 224.673 31.9756 224.184 32.4621C223.694 32.9487 223.113 33.3344 222.474 33.597C221.835 33.8597 221.15 33.9942 220.459 33.9929ZM220.459 24.0184C219.52 24.0184 218.601 24.2961 217.82 24.8164C217.039 25.3367 216.43 26.0762 216.071 26.9415C215.711 27.8067 215.617 28.7588 215.8 29.6773C215.983 30.5958 216.436 31.4395 217.1 32.1017C217.765 32.7639 218.611 33.2149 219.532 33.3976C220.454 33.5803 221.409 33.4865 222.277 33.1281C223.145 32.7698 223.887 32.1628 224.408 31.3842C224.93 30.6055 225.209 29.69 225.209 28.7535C225.208 27.4981 224.707 26.2945 223.816 25.4067C222.926 24.519 221.718 24.0197 220.459 24.0184Z" fill="white"/>
</g>
<defs>
<clipPath id="clip0_262_98">
<rect width="246" height="101" fill="white"/>
</clipPath>
</defs>
</svg>
