<svg width="41" height="40" viewBox="0 0 41 40" fill="none" xmlns="http://www.w3.org/2000/svg">
<path d="M14.0151 22.2117C14.4222 22.2117 14.7729 22.1953 15.0448 22.1758L19.2089 26.3391V29.3406H21.5526V26.3391L25.7167 22.1758C25.9886 22.1953 26.3393 22.2117 26.7464 22.2117C28.5761 22.2117 31.5347 21.8711 33.4831 19.9234C36.4143 16.9922 35.7065 11.7742 35.6745 11.5539C35.6011 11.0383 35.1964 10.6336 34.6807 10.5594C34.4604 10.5281 29.2425 9.82031 26.3112 12.7516C23.93 15.1328 23.9511 19.025 24.0589 20.518L21.5526 23.025V15.0602C22.6854 14.0805 25.4518 11.3438 25.4518 7.97578C25.4518 3.83047 21.262 0.641406 21.0839 0.507813C20.6675 0.195312 20.094 0.195312 19.6776 0.507813C19.4995 0.641406 15.3097 3.83047 15.3097 7.97578C15.3097 11.3438 18.0761 14.0805 19.2089 15.0602V23.025L16.7026 20.518C16.8104 19.025 16.8315 15.1328 14.4503 12.7516C12.3986 10.6998 8.78192 10.1901 6.08074 10.5594C5.56512 10.6336 5.16043 11.0383 5.08699 11.5539C5.05496 11.7742 4.34715 16.9922 7.2784 19.9234C9.22684 21.8719 12.1854 22.2117 14.0151 22.2117Z" fill="#46B753"/>
<path d="M6.23711 36.9556H0.380859V38.4192C0.380859 39.2276 1.03617 39.8829 1.84453 39.8829H10.1645C9.65898 38.1923 8.08945 36.9556 6.23711 36.9556Z" fill="#46B753"/>
<path d="M6.23711 31.6846H1.84453C1.03617 31.6846 0.380859 32.3399 0.380859 33.1482V34.6119H6.23711C9.38945 34.6119 12.0184 36.8885 12.5707 39.883H15.534C14.9551 35.2674 11.0066 31.6846 6.23711 31.6846Z" fill="#46B753"/>
<path d="M38.9172 31.6846H13.259C14.3364 32.4939 15.27 33.4854 16.0145 34.6119H40.3809V33.1482C40.3809 32.3399 39.7256 31.6846 38.9172 31.6846Z" fill="#46B753"/>
<path d="M17.8925 39.8829H38.9171C39.7255 39.8829 40.3808 39.2276 40.3808 38.4192V36.9556H17.2097C17.5566 37.8821 17.7902 38.8634 17.8925 39.8829Z" fill="#46B753"/>
</svg>
