<svg width="41" height="41" viewBox="0 0 41 41" fill="none" xmlns="http://www.w3.org/2000/svg">
<g clip-path="url(#clip0_1473_675)">
<path d="M20.4769 9.90771L18.874 12.4794L28.0904 15.0097L20.4769 9.90771Z" fill="#46B753"/>
<path d="M21.78 21.8799H20.0288C18.9907 21.8799 18.124 22.626 17.9355 23.61L20.9467 24.9493L23.8786 23.6399C23.7021 22.6411 22.8286 21.8799 21.78 21.8799Z" fill="#46B753"/>
<path d="M5.45801 18.0601L15.7672 22.6455C16.3461 20.8439 18.0373 19.5361 20.0288 19.5361H21.78C23.7805 19.5361 25.4785 20.8557 26.0498 22.6701L36.3715 18.0601H5.45801Z" fill="#46B753"/>
<path d="M40.1323 15.6409L22.1899 2.1936C21.7838 1.88922 21.2278 1.88086 20.8127 2.17297L1.705 15.6204C1.66367 15.6495 1.62516 15.6821 1.58789 15.7163H10.348L11.1213 12.6938C11.2714 12.1059 11.6409 11.6152 12.1616 11.3127C12.6711 11.0165 13.2628 10.9388 13.8282 11.0939L16.5162 11.8319L18.5689 8.53844C18.8889 8.02508 19.3882 7.6729 19.9749 7.54696C20.5561 7.42219 21.148 7.53586 21.6422 7.86704L33.1899 15.6054C33.2401 15.639 33.2856 15.6767 33.3288 15.7162H40.222C40.1932 15.6898 40.1636 15.6643 40.1323 15.6409Z" fill="#46B753"/>
<path d="M21.4255 27.3026C21.2735 27.3705 21.1105 27.4045 20.9477 27.4045C20.7853 27.4045 20.623 27.3707 20.4714 27.3033L0.904297 18.6001V36.59C0.904297 37.826 1.89281 38.8316 3.10789 38.8316H38.7008C39.9159 38.8316 40.9043 37.826 40.9043 36.59V18.6028L21.4255 27.3026Z" fill="#46B753"/>
<path d="M16.7563 14.3287C16.7526 14.3278 16.749 14.3267 16.7452 14.3257L13.3605 13.3965L12.7671 15.7166H21.8114L16.7563 14.3287Z" fill="#46B753"/>
</g>
<defs>
<clipPath id="clip0_1473_675">
<rect width="40" height="40" fill="white" transform="translate(0.904297 0.395508)"/>
</clipPath>
</defs>
</svg>
