<svg width="41" height="41" viewBox="0 0 41 41" fill="none" xmlns="http://www.w3.org/2000/svg">
<g clip-path="url(#clip0_1473_668)">
<path d="M33.0286 8.6167C33.0286 4.09397 29.3482 0.335449 24.8254 0.335449C23.063 0.335449 21.4162 1.08959 20.1379 2.44686C18.8596 1.08959 17.2128 0.335449 15.4504 0.335449C10.9277 0.335449 7.24731 4.09397 7.24731 8.6167C7.24731 13.1658 10.5855 15.514 14.4514 18.2343C16.0455 19.3558 17.6947 20.5162 19.37 21.9697L20.1368 22.6357L20.9047 21.9708C22.7986 20.3319 24.6 19.0491 26.1884 17.9172C30.0096 15.1971 33.0286 13.0479 33.0286 8.6167ZM23.6536 12.1323H21.3098V14.4761H18.9661V12.1323H16.6223V9.78857H18.9661V7.44482H21.3098V9.78857H23.6536V12.1323Z" fill="#46B753"/>
<path d="M38.7318 11.0542C36.3411 11.0542 35.724 22.1636 35.677 22.398C35.439 24.0258 34.2922 26.4355 32.3557 27.8865L27.2798 31.5719L25.8745 29.6951L30.9504 26.0108C32.9611 24.5033 33.8775 21.9292 31.3645 21.9292C29.1139 21.9292 24.9069 24.5349 23.6597 25.5686C22.1704 26.8029 21.3098 28.637 21.3098 30.5714V40.3355H28.3411C28.3411 39.2104 28.9504 37.9839 29.8879 36.812C30.8723 35.5229 32.2786 34.2104 33.7316 32.8745C36.4972 30.2729 39.3644 27.6011 39.7395 24.8824C39.9622 23.0562 40.1471 19.924 40.1379 17.1324C40.1277 14.0062 39.8629 11.1552 38.7318 11.0542Z" fill="#46B753"/>
<path d="M16.3411 25.3512C13.0364 23.0776 10.5287 21.9292 8.91153 21.9292C6.39856 21.9292 7.31497 24.5033 9.32567 26.0108L14.4015 29.6951L12.9962 31.5719L7.92036 27.8865C5.98364 26.4355 4.83692 24.0258 4.59887 22.398C4.55192 22.1636 3.93481 11.0542 1.54411 11.0542C0.231607 11.1714 0.0909819 14.9917 0.161372 18.6479C0.208326 21.3198 0.419185 23.9214 0.536294 24.8824C0.911373 27.6011 3.77856 30.273 6.54419 32.8745C7.99731 34.2104 9.40348 35.5229 10.3879 36.812C11.3254 37.9839 11.9347 39.2104 11.9347 40.3355H18.966V30.6182C18.9661 28.5478 17.9942 26.5976 16.3411 25.3512Z" fill="#46B753"/>
</g>
<defs>
<clipPath id="clip0_1473_668">
<rect width="40" height="40" fill="white" transform="translate(0.142578 0.335449)"/>
</clipPath>
</defs>
</svg>
