<svg width="41" height="41" viewBox="0 0 41 41" fill="none" xmlns="http://www.w3.org/2000/svg">
<path d="M20.6665 0.395508C9.62002 0.395508 0.666504 9.35049 0.666504 20.3955C0.666504 31.4405 9.62002 40.3955 20.6665 40.3955C31.7115 40.3955 40.6665 31.4405 40.6665 20.3955C40.6665 9.35049 31.7115 0.395508 20.6665 0.395508ZM10.6665 23.729C8.82402 23.729 7.33301 22.2365 7.33301 20.3955C7.33301 18.5561 8.82402 17.062 10.6665 17.062C12.5075 17.062 14 18.5561 14 20.3955C14 22.2365 12.5075 23.729 10.6665 23.729ZM20.6665 23.729C18.824 23.729 17.333 22.2365 17.333 20.3955C17.333 18.5561 18.824 17.062 20.6665 17.062C22.5075 17.062 24 18.5561 24 20.3955C24 22.2365 22.5075 23.729 20.6665 23.729ZM30.6665 23.729C28.824 23.729 27.333 22.2365 27.333 20.3955C27.333 18.5561 28.824 17.062 30.6665 17.062C32.5075 17.062 34 18.5561 34 20.3955C34 22.2365 32.5075 23.729 30.6665 23.729Z" fill="#46B753"/>
</svg>
