<svg width="36" height="41" viewBox="0 0 36 41" fill="none" xmlns="http://www.w3.org/2000/svg">
<path d="M3.71493 13.5311L4.80868 36.2642C4.90177 38.4373 6.75529 40.1978 8.92847 40.1978H27.5951C29.7683 40.1978 31.6218 38.4373 31.7149 36.2642L32.8087 13.5311H3.71493ZM15.1062 21.0675L17.1062 17.6027C17.5828 16.7772 18.9395 16.7772 19.4161 17.6027L21.8529 21.8228C22.144 21.3058 22.7351 21.0155 23.3386 21.1782C24.0496 21.3683 24.4721 22.1001 24.2813 22.811L23.5496 25.5428C23.3901 26.1379 22.8516 26.5311 22.2625 26.5311C22.1485 26.5311 22.0326 26.5168 21.9167 26.4855L19.1843 25.7537C18.4734 25.5636 18.0509 24.8319 18.2416 24.1209C18.4018 23.522 18.948 23.1496 19.5431 23.1561L18.2612 20.936L17.4161 22.4009C17.047 23.0363 16.2325 23.2563 15.5945 22.8892C14.9571 22.5207 14.7384 21.7056 15.1062 21.0675ZM15.3386 29.2173C15.2227 29.2485 15.1069 29.2629 14.9929 29.2629C14.5157 29.2629 14.0828 28.9972 13.8471 28.5832L12.571 30.7928H14.2618C14.9981 30.7928 15.5951 31.3892 15.5951 32.1261C15.5951 32.8631 14.9981 33.4595 14.2618 33.4595H10.2618C9.78524 33.4595 9.34513 33.2056 9.10685 32.7928C8.86922 32.38 8.86922 31.8722 9.10685 31.4595L11.5437 27.2381C10.9486 27.2446 10.4024 26.8735 10.2416 26.2746C10.0509 25.5636 10.4734 24.8319 11.1843 24.6418L13.9167 23.91C14.6309 23.7186 15.3595 24.1418 15.5496 24.8527L16.2813 27.5845C16.4721 28.2954 16.0496 29.0272 15.3386 29.2173ZM27.4167 32.7928C27.1785 33.2056 26.7384 33.4595 26.2618 33.4595H21.3881C21.6895 33.9712 21.644 34.63 21.2045 35.0688C20.9441 35.3293 20.6029 35.4595 20.2618 35.4595C19.9207 35.4595 19.5795 35.3293 19.3191 35.0688L17.3191 33.0688C16.7983 32.548 16.7983 31.7043 17.3191 31.1834L19.3191 29.1834C19.8399 28.6626 20.6837 28.6626 21.2045 29.1834C21.644 29.6222 21.6895 30.2811 21.3881 30.7928H23.9519L23.1069 29.3293C22.739 28.6912 22.9571 27.8761 23.5951 27.5077C24.2312 27.1379 25.0476 27.3579 25.4167 27.9959L27.4167 31.4595C27.6544 31.8722 27.6544 32.38 27.4167 32.7928ZM35.5951 8.19775V9.53109C35.5951 10.2681 34.9988 10.8644 34.2618 10.8644H2.2618C1.52482 10.8644 0.928467 10.2681 0.928467 9.53109V8.19775C0.928467 7.46077 1.52482 6.86442 2.2618 6.86442H34.2618C34.9988 6.86442 35.5951 7.46077 35.5951 8.19775ZM23.5951 4.19775H20.9285C20.9285 3.46468 20.3282 2.86442 19.5951 2.86442H16.9285C16.1954 2.86442 15.5951 3.46468 15.5951 4.19775H12.9285C12.9285 1.99723 14.7279 0.197754 16.9285 0.197754H19.5951C21.7957 0.197754 23.5951 1.99723 23.5951 4.19775Z" fill="#46B753"/>
</svg>
